<svg width="30" height="30" viewBox="0 0 30 30" fill="none" xmlns="http://www.w3.org/2000/svg">
<path d="M27.5 8.4375H24.0139C23.2625 8.4375 22.8867 8.4375 22.5325 8.33022C22.1782 8.22296 21.8656 8.01456 21.2404 7.59775C20.3026 6.97254 19.2328 6.25931 18.7013 6.0984C18.1699 5.9375 17.6063 5.9375 16.4791 5.9375C14.9464 5.9375 13.9584 5.9375 13.2693 6.22295C12.5801 6.5084 12.0382 7.05034 10.9543 8.1342L10.0005 9.08805C9.75623 9.33231 9.63409 9.45445 9.55869 9.57502C9.27919 10.022 9.31016 10.5963 9.63611 11.0106C9.72405 11.1224 9.85861 11.2307 10.1277 11.4473C11.1224 12.2478 12.5565 12.1679 13.4573 11.2618L15 9.70982H16.25L23.75 17.2545C24.4404 17.949 24.4404 19.0748 23.75 19.7693C23.0596 20.4638 21.9404 20.4638 21.25 19.7693L20.625 19.1406M20.625 19.1406L16.875 15.3683M20.625 19.1406C21.3154 19.8351 21.3154 20.9611 20.625 21.6555C19.9346 22.35 18.8154 22.35 18.125 21.6555L16.875 20.3981M16.875 20.3981C17.5654 21.0925 17.5654 22.2185 16.875 22.913C16.1846 23.6073 15.0654 23.6073 14.375 22.913L12.5 21.0267M16.875 20.3981L14.375 17.8981M12.5 21.0267L11.875 20.3981M12.5 21.0267C13.1904 21.7212 13.1904 22.8472 12.5 23.5417C11.8096 24.2361 10.6904 24.2361 10 23.5417L6.47046 19.9386C5.74519 19.1982 5.38255 18.8281 4.91794 18.6327C4.45333 18.4375 3.9351 18.4375 2.89867 18.4375H2.5" stroke="#0D1BA1" stroke-width="1.875" stroke-linecap="round" stroke-linejoin="round"/>
<path d="M27.5 18.4375H24.375" stroke="#0D1BA1" stroke-width="1.875" stroke-linecap="round"/>
<path d="M10.625 8.4375H2.5" stroke="#0D1BA1" stroke-width="1.875" stroke-linecap="round"/>
</svg>
