<svg width="19" height="19" viewBox="0 0 19 19" fill="none" xmlns="http://www.w3.org/2000/svg">
<path d="M17.4167 9.50016C17.4167 13.8724 13.8723 17.4168 9.50004 17.4168C5.12778 17.4168 1.58337 13.8724 1.58337 9.50016C1.58337 5.12791 5.12778 1.5835 9.50004 1.5835C13.8723 1.5835 17.4167 5.12791 17.4167 9.50016Z" stroke="white" stroke-width="1.5"/>
<path d="M11.875 11.0835C11.875 11.958 11.1661 12.6668 10.2917 12.6668H9.5C8.76225 12.6668 8.39341 12.6668 8.10239 12.5463C7.71446 12.3856 7.40622 12.0774 7.24552 11.6894C7.125 11.3984 7.125 11.0296 7.125 10.2918V8.7085C7.125 7.97074 7.125 7.60189 7.24552 7.31091C7.40622 6.92295 7.71446 6.61472 8.10239 6.45402C8.39341 6.3335 8.76225 6.3335 9.5 6.3335H10.2917C11.1661 6.3335 11.875 7.04238 11.875 7.91683" stroke="white" stroke-width="1.5" stroke-linecap="round"/>
</svg>
