<svg width="39" height="39" viewBox="0 0 39 39" fill="none" xmlns="http://www.w3.org/2000/svg">
<path d="M13.5795 6.40048L12.7406 4.51302C12.1921 3.27892 11.9178 2.66183 11.5077 2.1896C10.9937 1.59779 10.3236 1.16238 9.57408 0.933021C8.97598 0.75 8.30071 0.75 6.95019 0.75C4.97456 0.75 3.98675 0.75 3.15752 1.12977C2.18073 1.57713 1.29858 2.5485 0.947104 3.56375C0.648729 4.4256 0.734208 5.31131 0.905125 7.08271C2.72456 25.9378 13.0619 36.2751 31.917 38.0947C33.6884 38.2655 34.5742 38.351 35.4359 38.0526C36.4513 37.7012 37.4226 36.8191 37.8701 35.8422C38.2497 35.013 38.2497 34.0251 38.2497 32.0495C38.2497 30.6991 38.2497 30.0239 38.0667 29.4258C37.8374 28.6762 37.402 28.0062 36.8101 27.492C36.338 27.082 35.7209 26.8076 34.4868 26.2591L32.5992 25.4203C31.2628 24.8264 30.5945 24.5293 29.9155 24.4647C29.2655 24.4028 28.6103 24.4941 28.002 24.731C27.3663 24.9785 26.8047 25.4466 25.6809 26.383C24.5626 27.3149 24.0034 27.781 23.3201 28.0305C22.7142 28.252 21.9134 28.3339 21.2755 28.2399C20.5557 28.1339 20.0047 27.8393 18.9024 27.2503C15.4732 25.4176 13.5821 23.5266 11.7495 20.0974C11.1605 18.9951 10.866 18.4441 10.7599 17.7243C10.6659 17.0864 10.7478 16.2855 10.9691 15.6797C11.2187 14.9964 11.6848 14.4372 12.6168 13.3188C13.5531 12.1952 14.0213 11.6334 14.2688 10.9977C14.5057 10.3895 14.5969 9.73417 14.5351 9.08433C14.4705 8.40525 14.1735 7.737 13.5795 6.40048Z" stroke="#0D1BA1" stroke-width="1.5" stroke-linecap="round"/>
</svg>
