<svg width="50" height="50" viewBox="0 0 50 50" fill="none" xmlns="http://www.w3.org/2000/svg">
<path d="M28.3702 44.5144C27.4669 45.3603 26.2592 45.8332 25.0023 45.8332C23.7454 45.8332 22.5379 45.3603 21.6344 44.5144C13.3605 36.7207 2.27242 28.0142 7.67973 15.3741C10.6034 8.53975 17.6215 4.1665 25.0023 4.1665C32.3831 4.1665 39.4013 8.53975 42.325 15.3741C47.7254 27.9984 36.6646 36.7475 28.3702 44.5144Z" stroke="#0D1BA1" stroke-width="3.125"/>
<path d="M32.2916 22.9167C32.2916 26.9437 29.027 30.2083 24.9999 30.2083C20.9728 30.2083 17.7083 26.9437 17.7083 22.9167C17.7083 18.8896 20.9728 15.625 24.9999 15.625C29.027 15.625 32.2916 18.8896 32.2916 22.9167Z" stroke="#0D1BA1" stroke-width="3.125"/>
</svg>
