<svg width="50" height="50" viewBox="0 0 50 50" fill="none" xmlns="http://www.w3.org/2000/svg">
<path d="M4.16675 12.5L18.5689 20.6604C23.8784 23.6688 26.1217 23.6688 31.4313 20.6604L45.8334 12.5" stroke="#0D1BA1" stroke-width="3.125" stroke-linejoin="round"/>
<path d="M4.1996 28.074C4.33579 34.4607 4.40389 37.6538 6.76041 40.0194C9.11691 42.3848 12.3966 42.4671 18.956 42.6319C22.9986 42.7336 27.0015 42.7336 31.0442 42.6319C37.6036 42.4671 40.8832 42.3848 43.2399 40.0194C45.5963 37.6538 45.6645 34.4607 45.8005 28.074C45.8445 26.0205 45.8445 23.9792 45.8005 21.9257C45.6645 15.5391 45.5963 12.3459 43.2399 9.98038C40.8832 7.6149 37.6036 7.53251 31.0442 7.36769C27.0015 7.26611 22.9986 7.26611 18.956 7.36767C12.3966 7.53246 9.11691 7.61486 6.76039 9.98036C4.40387 12.3458 4.33579 15.5391 4.19958 21.9257C4.15579 23.9792 4.15581 26.0205 4.1996 28.074Z" stroke="#0D1BA1" stroke-width="3.125" stroke-linejoin="round"/>
</svg>
