<svg width="30" height="30" viewBox="0 0 30 30" fill="none" xmlns="http://www.w3.org/2000/svg">
<path d="M13.75 2.5C8.22715 2.5 3.75 6.93174 3.75 12.3986C3.75 14.2648 4.27169 16.0103 5.17857 17.5" stroke="#0D1BA1" stroke-width="1.875" stroke-linecap="round"/>
<path d="M21.25 6.25H18.75C17.5715 6.25 16.9823 6.25 16.6161 6.61611C16.25 6.98224 16.25 7.57149 16.25 8.75V11.25C16.25 12.4285 16.25 13.0177 16.6161 13.3839C16.9823 13.75 17.5715 13.75 18.75 13.75H21.25C22.4285 13.75 23.0177 13.75 23.3839 13.3839C23.75 13.0177 23.75 12.4285 23.75 11.25V8.75C23.75 7.57149 23.75 6.98224 23.3839 6.61611C23.0177 6.25 22.4285 6.25 21.25 6.25Z" stroke="#0D1BA1" stroke-width="1.875" stroke-linecap="round" stroke-linejoin="round"/>
<path d="M18.125 13.75V16.25M21.875 13.75V16.25M18.125 3.75V6.25M21.875 3.75V6.25M16.25 8.125H13.75M16.25 11.875H13.75M26.25 8.125H23.75M26.25 11.875H23.75" stroke="#0D1BA1" stroke-width="1.875" stroke-linecap="round" stroke-linejoin="round"/>
<path d="M7.97859 21.3727C7.86375 21.027 7.80634 20.8541 7.81302 20.7141C7.82717 20.4179 8.01392 20.1578 8.28946 20.0506C8.41974 20 8.60131 20 8.96446 20H18.5355C18.8987 20 19.0802 20 19.2105 20.0506C19.4861 20.1578 19.6729 20.4179 19.687 20.7141C19.6936 20.8541 19.6362 21.027 19.5214 21.3727C19.3091 22.0117 19.203 22.3314 19.0394 22.59C18.6965 23.132 18.159 23.5209 17.5382 23.676C17.2419 23.75 16.9062 23.75 16.2351 23.75H11.2648C10.5937 23.75 10.2581 23.75 9.9618 23.676C9.34104 23.5209 8.80351 23.132 8.46062 22.59C8.29694 22.3314 8.19082 22.0117 7.97859 21.3727Z" stroke="#0D1BA1" stroke-width="1.875"/>
<path d="M17.5 23.75L17.3384 24.5583C17.1616 25.4421 17.0733 25.884 16.8751 26.2333C16.569 26.7731 16.0727 27.1799 15.4832 27.3743C15.102 27.5 14.6514 27.5 13.75 27.5C12.8486 27.5 12.398 27.5 12.0167 27.3743C11.4272 27.1799 10.9311 26.7731 10.6248 26.2333C10.4268 25.884 10.3384 25.4421 10.1617 24.5583L10 23.75" stroke="#0D1BA1" stroke-width="1.875"/>
</svg>
