<svg width="30" height="30" viewBox="0 0 30 30" fill="none" xmlns="http://www.w3.org/2000/svg">
<path d="M6.42857 17.5C5.52169 16.0103 5 14.2648 5 12.3986C5 6.93174 9.47715 2.5 15 2.5C20.5229 2.5 25 6.93174 25 12.3986C25 14.2648 24.4784 16.0103 23.5714 17.5" stroke="#0D1BA1" stroke-width="1.875" stroke-linecap="round"/>
<path d="M9.22859 21.3727C9.11375 21.027 9.05634 20.8541 9.06302 20.7141C9.07717 20.4179 9.26392 20.1578 9.53946 20.0506C9.66974 20 9.85131 20 10.2145 20H19.7855C20.1487 20 20.3302 20 20.4605 20.0506C20.7361 20.1578 20.9229 20.4179 20.937 20.7141C20.9436 20.8541 20.8862 21.027 20.7714 21.3727C20.5591 22.0117 20.453 22.3314 20.2894 22.59C19.9465 23.132 19.409 23.5209 18.7882 23.676C18.4919 23.75 18.1562 23.75 17.4851 23.75H12.5149C11.8437 23.75 11.5081 23.75 11.2118 23.676C10.591 23.5209 10.0535 23.132 9.71062 22.59C9.54694 22.3314 9.44082 22.0117 9.22859 21.3727Z" stroke="#0D1BA1" stroke-width="1.875"/>
<path d="M18.75 23.75L18.5884 24.5583C18.4116 25.4421 18.3233 25.884 18.1251 26.2333C17.819 26.7731 17.3227 27.1799 16.7332 27.3743C16.352 27.5 15.9014 27.5 15 27.5C14.0986 27.5 13.648 27.5 13.2668 27.3743C12.6773 27.1799 12.1811 26.7731 11.8748 26.2333C11.6768 25.884 11.5884 25.4421 11.4117 24.5583L11.25 23.75" stroke="#0D1BA1" stroke-width="1.875"/>
<path d="M10.3125 12.1875L13.125 15V20M10.3125 13.125C10.8303 13.125 11.25 12.7053 11.25 12.1875C11.25 11.6697 10.8303 11.25 10.3125 11.25C9.79474 11.25 9.375 11.6697 9.375 12.1875C9.375 12.7053 9.79474 13.125 10.3125 13.125Z" stroke="#0D1BA1" stroke-width="1.875" stroke-linecap="round" stroke-linejoin="round"/>
<path d="M19.6875 12.1875L16.875 15V20M19.6875 13.125C19.1697 13.125 18.75 12.7053 18.75 12.1875C18.75 11.6697 19.1697 11.25 19.6875 11.25C20.2053 11.25 20.625 11.6697 20.625 12.1875C20.625 12.7053 20.2053 13.125 19.6875 13.125Z" stroke="#0D1BA1" stroke-width="1.875" stroke-linecap="round" stroke-linejoin="round"/>
</svg>
