<svg width="18" height="18" viewBox="0 0 18 18" fill="none" xmlns="http://www.w3.org/2000/svg">
<path d="M10.5 16.5V6C10.5 3.87868 10.5 2.81802 9.84097 2.15901C9.18195 1.5 8.1213 1.5 6 1.5C3.87868 1.5 2.81802 1.5 2.15901 2.15901C1.5 2.81802 1.5 3.87868 1.5 6V12C1.5 14.1213 1.5 15.1819 2.15901 15.841C2.81802 16.5 3.87868 16.5 6 16.5H10.5Z" stroke="white" stroke-width="1.5" stroke-linecap="round"/>
<path d="M4.875 8.25H4.125M7.875 8.25H7.125M4.875 5.25H4.125M4.875 11.25H4.125M7.875 5.25H7.125M7.875 11.25H7.125" stroke="white" stroke-width="1.5" stroke-linecap="round"/>
<path d="M13.875 11.25H13.125M13.875 8.25H13.125" stroke="white" stroke-width="1.5" stroke-linecap="round"/>
<path d="M13.5 6H10.5V16.5H13.5C14.9142 16.5 15.6213 16.5 16.0606 16.0606C16.5 15.6213 16.5 14.9142 16.5 13.5V9C16.5 7.5858 16.5 6.87868 16.0606 6.43934C15.6213 6 14.9142 6 13.5 6Z" stroke="white" stroke-width="1.5" stroke-linecap="round"/>
</svg>
