<?xml version="1.0" encoding="UTF-8"?>
<!DOCTYPE svg PUBLIC "-//W3C//DTD SVG 1.1//EN" "http://www.w3.org/Graphics/SVG/1.1/DTD/svg11.dtd">
<!-- Creator: CorelDRAW -->
<svg xmlns="http://www.w3.org/2000/svg" xml:space="preserve" width="162.56mm" height="91.4398mm" version="1.1" style="shape-rendering:geometricPrecision; text-rendering:geometricPrecision; image-rendering:optimizeQuality; fill-rule:evenodd; clip-rule:evenodd"
viewBox="0 0 16255.98 9143.98"
 xmlns:xlink="http://www.w3.org/1999/xlink"
 xmlns:xodm="http://www.corel.com/coreldraw/odm/2003">
 <defs>
  <style type="text/css">
   <![CDATA[
    .fil0 {fill:#0D1BA1}
    .fil2 {fill:#0D1BA1;fill-rule:nonzero}
    .fil1 {fill:#FA4E09;fill-rule:nonzero}
    .fil3 {fill:#FA4E09;fill-rule:nonzero}
   ]]>
  </style>
 </defs>
 <g id="Layer_x0020_1">
  <metadata id="CorelCorpID_0Corel-Layer"/>
  <path class="fil0" d="M770.45 2624.06l0 2184.33c603.23,0 1092.19,-488.96 1092.19,-1092.19 0,-603.18 -488.96,-1092.14 -1092.19,-1092.14z"/>
  <path class="fil0" d="M1862.6 4683.64c-603.19,0 -1092.15,488.95 -1092.15,1092.14 0,603.23 488.96,1092.19 1092.15,1092.19 603.23,0 1092.19,-488.96 1092.19,-1092.19 0,-603.19 -488.96,-1092.14 -1092.19,-1092.14zm286.2 480.8l0 1301.55c100.53,-46.94 188.22,-118.31 254.8,-206.96l0 -1003.45 -254.8 -91.14zm-418.33 248.51l0 1103.05c42.99,8.58 87.43,13.09 132.93,13.09 41.63,0 82.36,-3.76 121.9,-10.97l0 -1014.01 -254.83 -91.16zm-416.08 397.92l254.8 91.14 0 559.76c-101.41,-49.16 -189.19,-123.25 -254.8,-214.78l0 -436.12z"/>
  <path class="fil1" d="M2109.96 4561.08l214.73 -906.17 508.17 180.87 -386.51 846.46c-104.14,-55.71 -217.14,-97 -336.39,-121.16z"/>
  <path class="fil2" d="M4618.11 3945.44c75.19,26.84 134.26,66.78 177.22,119.81 42.97,53.04 64.45,123.86 64.45,212.47 0,120.83 -42.29,211.46 -126.88,271.88 -84.57,60.41 -203.4,90.62 -356.45,90.62l-590.06 0 0 -1395.62 513.54 0c71.15,0 137.61,7.39 199.37,22.16 61.75,14.77 115.46,38.27 161.11,70.48 45.64,32.22 81.9,73.17 108.75,122.85 26.85,49.68 40.27,110.09 40.27,181.25 0,80.55 -16.77,145.66 -50.35,195.34 -33.56,49.68 -80.54,85.92 -140.97,108.76zm-279.93 449.09c69.82,0 127.55,-13.43 173.2,-40.29 45.65,-26.85 68.47,-68.46 68.47,-124.86 0,-65.78 -24.17,-112.44 -72.49,-139.95 -48.34,-27.53 -110.77,-41.29 -187.29,-41.29l-181.26 0 0 -233.61 151.04 0c72.51,0 130.23,-13.76 173.19,-41.28 42.97,-27.53 64.45,-67.47 64.45,-119.83 0,-56.39 -20.47,-97.67 -61.42,-123.85 -40.95,-26.19 -103.05,-39.27 -186.29,-39.27l-227.56 0 0 904.23 285.96 0zm2011.87 245.69l-302.09 0 -108.74 -229.58 -594.1 0 -106.73 229.58 -302.08 0 702.84 -1429.85 6.04 0 704.86 1429.85zm-525.63 -475.28l-181.24 -384.65 -181.25 384.65 362.49 0zm5020.58 475.28l-302.08 0 -108.75 -229.58 -594.09 0 -106.73 229.58 -302.09 0 702.84 -1429.85 6.05 0 704.85 1429.85zm-525.62 -475.28l-181.25 -384.65 -181.24 384.65 362.49 0zm-3582.67 -533.67c0,38.94 11.08,69.48 33.22,91.63 22.16,22.15 51.03,40.28 86.61,54.38 35.57,14.09 76.52,25.5 122.84,34.23 46.32,8.73 93.31,18.8 140.97,30.21 47.66,11.41 94.65,25.84 140.97,43.29 46.32,17.46 87.27,41.29 122.85,71.5 35.58,30.2 64.44,69.15 86.59,116.8 22.16,47.66 33.23,107.08 33.23,178.23 0,73.85 -13.43,136.94 -40.28,189.31 -26.85,52.35 -63.43,95.65 -109.75,129.89 -46.32,34.24 -100.02,59.41 -161.11,75.52 -61.09,16.11 -126.54,24.16 -196.36,24.16 -83.23,0 -168.82,-10.74 -256.76,-32.22 -87.95,-21.48 -172.18,-52.36 -252.74,-92.64l-42.29 -310.13 6.04 -4.03c88.61,72.51 177.56,125.2 266.84,158.1 89.28,32.88 170.17,49.33 242.67,49.33 79.21,0 143.32,-17.12 192.32,-51.35 49,-34.24 73.51,-82.23 73.51,-144 0,-40.27 -11.08,-72.5 -33.23,-96.66 -22.15,-24.17 -51.02,-43.3 -86.59,-57.39 -35.58,-14.1 -76.53,-25.52 -122.85,-34.24 -46.32,-8.73 -93.31,-18.13 -140.97,-28.19 -47.67,-10.08 -94.65,-23.16 -140.97,-39.27 -46.32,-16.12 -87.27,-38.61 -122.85,-67.47 -35.58,-28.86 -64.44,-66.46 -86.6,-112.78 -22.16,-46.31 -33.22,-105.05 -33.22,-176.21 0,-69.81 12.08,-130.9 36.24,-183.27 24.17,-52.35 57.4,-96.33 99.68,-131.91 42.3,-35.57 92.65,-62.09 151.05,-79.54 58.4,-17.45 121.17,-26.18 188.29,-26.18 72.51,0 148.7,10.07 228.58,30.21 79.88,20.13 160.1,49.68 240.66,88.61l40.28 279.93 -2.02 2.01c-89.95,-64.44 -174.2,-110.76 -252.74,-138.96 -78.54,-28.19 -149.36,-42.28 -212.46,-42.28 -73.84,0 -132.24,18.11 -175.21,54.37 -42.96,36.25 -64.44,85.25 -64.44,147.01zm974.72 1008.95l0 -1397.62 265.83 0 0 1397.62 -265.83 0zm1216.37 -507.49c56.39,68.46 125.53,130.23 207.42,185.27 81.9,55.05 169.17,101.36 261.81,138.96l-163.12 217.49c-151.72,-64.44 -284.3,-155.4 -397.74,-272.87 -113.45,-117.48 -197.7,-255.43 -252.74,-413.85l6.04 -8.07 20.14 0c48.33,-2.68 93.31,-11.4 134.92,-26.17 41.63,-14.77 77.88,-34.9 108.75,-60.42 30.88,-25.51 55.06,-55.04 72.51,-88.6 17.45,-33.58 26.17,-70.49 26.17,-110.77 0,-76.52 -27.19,-133.92 -81.55,-172.19 -54.38,-38.26 -130.57,-57.4 -228.58,-57.4 -20.14,0 -41.62,0.68 -64.45,2.02 -22.82,1.34 -46.31,4.03 -70.48,8.06l0 1166.03 -265.83 0 0 -1397.62c126.2,-22.84 242.34,-34.24 348.4,-34.24 93.98,0 180.24,9.06 258.78,27.18 78.54,18.12 146.34,46.65 203.4,85.59 57.06,38.94 101.7,89.62 133.92,152.05 32.23,62.43 48.34,137.28 48.34,224.54 0,99.36 -26.52,187.63 -79.55,264.83 -53.04,77.2 -128.55,133.92 -226.56,170.18zm3004.69 -890.13l-704.86 1431.85 -6.03 0 -702.84 -1431.85 300.06 0 406.8 859.91 404.79 -859.91 302.08 0zm136.95 1397.62l0 -1397.62 265.83 0 0 1397.62 -265.83 0zm1498.32 -1151.93l-702.84 0 0 906.24 702.84 0 0 245.69 -968.67 0 0 -1397.62 968.67 0 0 245.69zm-632.36 592.07l0 -245.69 533.68 0 0 245.69 -533.68 0zm2787.19 -837.76l-745.13 1431.85 -4.03 0 -283.96 -545.75 -283.95 545.75 -6.04 0 -745.13 -1431.85 302.08 0 447.08 880.05 138.96 -275.9 -316.18 -604.15 302.08 0 161.1 316.17 161.12 -316.17 300.07 0 -314.17 604.15 138.96 275.9 447.07 -880.05 300.07 0z"/>
  <path class="fil3" d="M4176.68 5712.56c-77.13,0 -145.09,-17.91 -203.9,-53.75 -58.82,-35.84 -104.59,-85.68 -137.3,-149.56 -32.73,-63.88 -49.09,-138.28 -49.09,-223.2 0,-84.9 16.36,-159.11 49.09,-222.59 32.71,-63.49 78.48,-113.15 137.3,-148.99 58.81,-35.83 126.77,-53.75 203.9,-53.75 86.47,0 161.06,21.61 223.77,64.85 62.71,43.23 107.69,102.64 134.96,178.2l-142.55 52.59c-17.15,-47.53 -44.22,-84.53 -81.22,-111.02 -37,-26.48 -81.99,-39.73 -134.96,-39.73 -48.3,0 -90.56,11.3 -126.79,33.89 -36.22,22.6 -63.88,54.73 -82.96,96.41 -19.09,41.67 -28.63,91.72 -28.63,150.14 0,58.43 9.54,108.68 28.63,150.75 19.08,42.07 46.74,74.39 82.96,96.98 36.23,22.59 78.49,33.89 126.79,33.89 52.97,0 97.96,-13.25 134.96,-39.73 37,-26.48 64.07,-63.49 81.22,-111.01l142.55 51.41c-27.27,75.57 -72.25,135.17 -134.96,178.78 -62.71,43.63 -137.3,65.44 -223.77,65.44zm828.47 0c-77.12,0 -145.09,-17.72 -203.9,-53.16 -58.81,-35.45 -104.59,-85.11 -137.3,-148.99 -32.72,-63.88 -49.09,-138.27 -49.09,-223.18 0,-85.7 16.37,-160.48 49.09,-224.36 32.71,-63.88 78.49,-113.54 137.3,-148.98 58.81,-35.45 126.78,-53.17 203.9,-53.17 77.9,0 146.26,17.72 205.07,53.17 58.82,35.44 104.59,85.1 137.3,148.98 32.72,63.88 49.09,138.66 49.09,224.36 0,84.91 -16.56,159.3 -49.67,223.18 -33.1,63.88 -79.07,113.54 -137.89,148.99 -58.81,35.44 -126.77,53.16 -203.9,53.16zm-1.16 -144.89c49.84,0 92.5,-11.49 127.95,-34.47 35.44,-22.98 62.9,-55.51 82.38,-97.57 19.47,-42.07 29.21,-91.54 29.21,-148.4 0,-57.65 -9.74,-107.51 -29.21,-149.58 -19.48,-42.06 -46.94,-74.58 -82.38,-97.56 -35.45,-22.98 -78.11,-34.48 -127.95,-34.48 -47.53,0 -89.39,11.3 -125.63,33.89 -36.22,22.6 -63.87,54.93 -82.96,96.99 -19.08,42.07 -28.63,92.31 -28.63,150.74 0,57.65 9.55,107.5 28.63,149.57 19.09,42.07 46.74,74.39 82.96,96.98 36.24,22.59 78.1,33.89 125.63,33.89zm516.47 126.2l0 -814.46 155.42 0 379.76 616.98 -37.39 0 0 -616.98 150.74 0 0 814.46 -156.58 0 -378.6 -618.15 37.4 0 0 618.15 -150.75 0zm1073.87 15.18c-86.47,0 -157.56,-22.58 -213.26,-67.76 -55.7,-45.19 -89.39,-105.17 -101.07,-179.95l147.23 -36.23c8.57,49.86 28.24,87.25 59.01,112.18 30.77,24.92 68.75,37.39 113.93,37.39 24.15,0 45.76,-4.09 64.85,-12.27 19.08,-8.18 34.28,-20.25 45.58,-36.22 11.29,-15.97 16.94,-34.86 16.94,-56.67 0,-20.26 -5.84,-37.79 -17.53,-52.59 -11.69,-14.8 -29.4,-28.44 -53.17,-40.9 -23.76,-12.46 -53.55,-25.31 -89.39,-38.56 -51.41,-20.25 -94.45,-41.87 -129.12,-64.85 -34.66,-22.98 -60.57,-49.66 -77.7,-80.04 -17.14,-30.39 -25.71,-66.21 -25.71,-107.51 0,-43.62 10.71,-82.18 32.13,-115.68 21.43,-33.49 51.42,-59.99 89.98,-79.45 38.55,-19.48 83.54,-29.22 134.96,-29.22 54.53,0 103.03,12.66 145.48,37.98 42.45,25.31 76.54,62.9 102.25,112.75l-120.36 73.62c-16.36,-29.6 -35.64,-51.99 -57.84,-67.19 -22.21,-15.19 -46.94,-22.78 -74.2,-22.78 -19.48,0 -36.81,3.69 -52,11.1 -15.19,7.4 -27.26,17.53 -36.23,30.38 -8.95,12.86 -13.43,27.85 -13.43,44.99 0,17.91 5.25,33.88 15.77,47.91 10.52,14.02 27.65,27.45 51.42,40.31 23.76,12.85 54.72,26.29 92.89,40.31 50.64,18.7 92.9,39.34 126.79,61.93 33.89,22.6 59.79,48.89 77.7,78.88 17.92,29.99 26.87,66.41 26.87,109.25 0,48.3 -11.87,91.34 -35.63,129.13 -23.76,37.78 -56.68,67.18 -98.74,88.22 -42.07,21.03 -91.53,31.54 -148.4,31.54zm708.12 3.51c-102.84,0 -180.54,-26.09 -233.12,-78.29 -52.59,-52.19 -78.88,-130.48 -78.88,-234.87l0 -519.99 150.74 0 0 502.46c0,42.07 4.48,77.32 13.44,105.75 8.96,28.44 25.32,49.86 49.08,64.27 23.76,14.42 56.67,21.62 98.74,21.62 42.07,0 74.97,-7.2 98.73,-21.62 23.76,-14.41 40.32,-35.83 49.67,-64.27 9.34,-28.43 14.02,-63.29 14.02,-104.57l0 -503.64 150.74 0 0 514.15c0,105.95 -26.49,185.6 -79.46,238.96 -52.97,53.36 -130.88,80.04 -233.7,80.04zm462.72 -18.69l0 -814.46 150.75 0 0 678.91 347.04 0 0 135.55 -497.79 0zm645.02 0l0 -678.91 -252.4 0 0 -135.55 656.71 0 0 135.55 -251.23 0 0 678.91 -153.08 0zm495.46 0l0 -814.46 150.74 0 0 814.46 -150.74 0zm307.31 0l0 -814.46 155.41 0 379.77 616.98 -37.4 0 0 -616.98 150.74 0 0 814.46 -156.58 0 -378.6 -618.15 37.4 0 0 618.15 -150.74 0zm1153.32 18.69c-74.78,0 -140.61,-17.91 -197.47,-53.75 -56.88,-35.84 -101.67,-85.68 -134.38,-149.56 -32.73,-63.88 -49.09,-138.28 -49.09,-223.2 0,-84.9 16.36,-159.11 49.09,-222.59 32.71,-63.49 78.48,-113.15 137.3,-148.99 58.81,-35.83 126.78,-53.75 203.9,-53.75 86.47,0 161.06,21.61 223.77,64.85 62.72,43.23 107.69,102.64 134.96,178.2l-142.55 52.59c-17.15,-47.53 -44.22,-84.53 -81.22,-111.02 -37,-26.48 -81.99,-39.73 -134.96,-39.73 -48.3,0 -90.56,11.3 -126.79,33.89 -36.22,22.6 -63.88,54.73 -82.96,96.41 -19.09,41.67 -28.63,91.72 -28.63,150.14 0,58.43 9.54,108.68 28.63,150.75 19.08,42.07 46.74,74.39 82.96,96.98 36.23,22.59 78.49,33.89 126.79,33.89 24.92,0 50.63,-3.51 77.13,-10.51 26.48,-7.02 50.82,-19.29 73.02,-36.81 22.21,-17.53 40.13,-41.88 53.75,-73.04 13.64,-31.16 20.45,-70.89 20.45,-119.19l0 -46.74 33.89 105.17 -233.7 0 0 -135.55 334.19 0 0 442.87 -133.2 0 -21.04 -132.04 25.71 19.86c-14.02,28.82 -33.11,52.97 -57.26,72.45 -24.15,19.48 -51.61,34.09 -82.38,43.81 -30.77,9.74 -64.08,14.61 -99.91,14.61zm814.46 -18.69l0 -814.46 150.74 0 0 678.91 347.04 0 0 135.55 -497.78 0zm588.93 0l0 -814.46 150.74 0 0 814.46 -150.74 0zm307.31 0l0 -814.46 220.85 0 215 591.27 -26.87 0 213.84 -591.27 220.84 0 0 814.46 -150.73 0 0 -638.01 14.02 2.34 -211.5 564.39 -146.07 0 -211.49 -564.39 12.85 -2.34 0 638.01 -150.74 0zm1000.24 0l0 -814.46 150.74 0 0 814.46 -150.74 0zm494.28 0l0 -678.91 -252.4 0 0 -135.55 656.7 0 0 135.55 -251.23 0 0 678.91 -153.07 0zm495.45 0l0 -814.46 542.18 0 0 135.55 -391.44 0 0 193.98 365.74 0 0 134.38 -365.74 0 0 215 391.44 0 0 135.55 -542.18 0zm675.4 0l0 -814.46 237.2 0c135.55,0 240.33,35.84 314.33,107.51 74.01,71.67 111.02,173.72 111.02,306.15 0,129.31 -36.62,228.44 -109.84,297.39 -73.23,68.94 -178.78,103.41 -316.67,103.41l-236.04 0zm150.74 -139.06l70.11 0c61.54,0 113.73,-7.78 156.58,-23.36 42.85,-15.58 75.76,-42.85 98.74,-81.8 22.97,-38.96 34.47,-93.1 34.47,-162.42 0,-67 -11.1,-120.17 -33.3,-159.5 -22.2,-39.35 -53.75,-67.39 -94.66,-84.14 -40.89,-16.75 -90.16,-25.12 -147.81,-25.12l-84.13 0 0 536.34z"/>
  <path class="fil2" d="M6872.89 6394.06l0 -169.53 -155.04 -269.73 63.03 0 117.85 214.27 120.37 -214.27 63.03 0 -153.78 269.73 0 169.53 -55.46 0zm346.62 5.05c-28.98,0 -54.93,-6.83 -77.83,-20.48 -22.9,-13.66 -40.86,-32.67 -53.89,-57.04 -13.02,-24.37 -19.53,-52.11 -19.53,-83.19 0,-31.09 6.4,-58.72 19.22,-82.88 12.82,-24.15 30.67,-43.06 53.57,-56.72 22.9,-13.65 49.05,-20.48 78.46,-20.48 29.42,0 55.35,6.83 77.84,20.48 22.47,13.66 40.23,32.57 53.24,56.72 13.03,24.16 19.55,51.79 19.55,82.88 0,31.08 -6.52,58.71 -19.55,82.87 -13.01,24.16 -30.87,43.17 -53.56,57.04 -22.69,13.86 -48.53,20.8 -77.52,20.8zm0 -47.27c19.75,0 36.87,-4.73 51.37,-14.18 14.5,-9.46 25.73,-22.7 33.71,-39.71 7.99,-17.02 11.97,-36.86 11.97,-59.55 0,-23.11 -3.98,-43.18 -11.97,-60.19 -7.98,-17.02 -19.21,-30.14 -33.71,-39.39 -14.5,-9.24 -31.62,-13.87 -51.37,-13.87 -20.17,0 -37.6,4.73 -52.31,14.18 -14.7,9.46 -26.04,22.59 -34.03,39.4 -7.98,16.8 -11.97,36.76 -11.97,59.87 0,22.69 3.99,42.53 11.97,59.55 7.99,17.01 19.33,30.25 34.03,39.71 14.71,9.45 32.14,14.18 52.31,14.18zm331.5 47.27c-22.27,0 -41.59,-4.53 -57.97,-13.56 -16.4,-9.03 -28.89,-22.37 -37.51,-40.02 -8.61,-17.65 -12.92,-39.49 -12.92,-65.54l0 -196.63 52.94 0 0 177.73c0,20.58 2.63,37.7 7.88,51.36 5.25,13.65 13.14,23.74 23.64,30.25 10.5,6.51 23.53,9.77 39.07,9.77 17.22,0 31.82,-4.1 43.8,-12.3 11.98,-8.19 21.12,-20.68 27.41,-37.49 6.31,-16.81 9.46,-38.45 9.46,-64.92l0 -154.4 52.94 0 0 310.7 -52.94 0 0 -66.18 13.23 0c-8.82,23.12 -22.9,40.77 -42.22,52.95 -19.33,12.19 -41.6,18.28 -66.81,18.28zm240.11 -5.05l0 -310.7 53.58 0 0 83.19 -13.87 3.15c2.94,-18.48 9.98,-34.55 21.11,-48.21 11.13,-13.65 24.16,-24.26 39.07,-31.82 14.93,-7.57 29.53,-11.35 43.81,-11.35 9.66,0 18.91,1.05 27.73,3.15 8.83,2.1 17.86,5.67 27.09,10.71l-26.46 47.9c-5.04,-2.52 -11.03,-4.62 -17.96,-6.3 -6.94,-1.68 -13.55,-2.52 -19.86,-2.52 -10.07,0 -20.05,1.88 -29.93,5.67 -9.87,3.78 -18.81,9.67 -26.78,17.64 -7.98,7.99 -14.08,18.7 -18.28,32.15 -1.69,5.88 -3.05,13.55 -4.09,23 -1.06,9.46 -1.58,22.38 -1.58,38.76l0 145.58 -53.58 0zm559.02 6.93c-44.11,0 -80.24,-11.55 -108.4,-34.66 -28.15,-23.11 -45.37,-53.77 -51.68,-92.01l54.21 -13.23c4.61,29.41 16.69,51.77 36.24,67.11 19.53,15.34 43.37,23.01 71.52,23.01 16.39,0 31.09,-3.15 44.12,-9.46 13.02,-6.29 23.31,-15.23 30.88,-26.79 7.56,-11.54 11.34,-24.68 11.34,-39.39 0,-15.54 -4.2,-28.35 -12.6,-38.44 -8.41,-10.07 -20.07,-18.9 -34.98,-26.47 -14.91,-7.56 -32.24,-15.12 -51.99,-22.68 -24.37,-9.25 -45.69,-19.32 -63.97,-30.25 -18.28,-10.93 -32.46,-24.05 -42.54,-39.39 -10.08,-15.34 -15.13,-34.14 -15.13,-56.41 0,-22.26 5.47,-42.01 16.39,-59.23 10.92,-17.24 26.26,-30.79 46.01,-40.66 19.74,-9.87 42.65,-14.8 68.69,-14.8 27.73,0 52.31,6.29 73.74,18.9 21.43,12.6 38.65,31.3 51.68,56.09l-44.12 27.1c-9.66,-17.22 -21.43,-30.36 -35.29,-39.39 -13.87,-9.03 -29.83,-13.55 -47.9,-13.55 -14.28,0 -27,2.73 -38.13,8.19 -11.13,5.47 -19.85,13.03 -26.15,22.69 -6.3,9.66 -9.46,20.8 -9.46,33.4 0,13.44 3.78,24.89 11.35,34.35 7.56,9.45 18.49,17.75 32.77,24.9 14.28,7.13 31.51,14.49 51.68,22.05 25.63,9.66 47.69,20.17 66.17,31.51 18.49,11.34 32.88,24.89 43.17,40.66 10.3,15.75 15.44,35.18 15.44,58.29 0,24.79 -6.09,46.85 -18.28,66.17 -12.18,19.33 -28.99,34.56 -50.41,45.69 -21.43,11.13 -46.21,16.7 -74.37,16.7zm300.62 -1.88c-14.7,0 -28.05,-2.85 -40.02,-8.51 -11.97,-5.68 -21.33,-14.82 -28.05,-27.42 -6.72,-12.6 -10.08,-28.78 -10.08,-48.53l0 -314.48 54.2 -30.25 0 330.87c0,17.22 2.73,30.57 8.19,40.01 5.47,9.46 15.34,14.19 29.62,14.19 4.2,0 9.25,-0.53 15.13,-1.58 5.88,-1.05 12.18,-2.41 18.9,-4.1l0 41.6c-7.97,2.94 -16.07,5.05 -24.26,6.3 -8.19,1.26 -16.07,1.9 -23.63,1.9zm-142.43 -274.16l0 -41.59 190.32 0 0 41.59 -190.32 0zm257.12 269.11l0 -310.7 53.57 0 0 83.19 -13.87 3.15c2.95,-18.48 9.98,-34.55 21.12,-48.21 11.13,-13.65 24.16,-24.26 39.07,-31.82 14.92,-7.57 29.52,-11.35 43.8,-11.35 9.66,0 18.91,1.05 27.74,3.15 8.82,2.1 17.85,5.67 27.09,10.71l-26.46 47.9c-5.04,-2.52 -11.04,-4.62 -17.96,-6.3 -6.94,-1.68 -13.56,-2.52 -19.86,-2.52 -10.08,0 -20.06,1.88 -29.94,5.67 -9.87,3.78 -18.8,9.67 -26.77,17.64 -7.99,7.99 -14.09,18.7 -18.28,32.15 -1.69,5.88 -3.05,13.55 -4.1,23 -1.06,9.46 -1.58,22.38 -1.58,38.76l0 145.58 -53.57 0zm452.5 0l-3.78 -62.4 0 -132.34c0,-23.94 -6.61,-42.43 -19.85,-55.46 -13.24,-13.03 -32.88,-19.54 -58.93,-19.54 -16.8,0 -32.56,3.47 -47.27,10.4 -14.71,6.93 -28.99,18.6 -42.85,34.98l-38.45 -32.77c17.23,-20.17 36.98,-34.97 59.24,-44.43 22.28,-9.46 46.65,-14.18 73.11,-14.18 40.76,0 72.26,10.5 94.54,31.51 22.27,21 33.4,50.84 33.4,89.49l0 194.74 -49.16 0zm-102.73 5.05c-23.53,0 -44.01,-4.1 -61.45,-12.29 -17.43,-8.19 -30.88,-19.64 -40.32,-34.35 -9.46,-14.71 -14.19,-31.72 -14.19,-51.06 0,-17.22 3.47,-31.82 10.4,-43.79 6.93,-11.98 15.86,-21.33 26.78,-28.05 10.93,-7.14 23.42,-12.08 37.51,-14.8 14.07,-2.74 28.88,-4.11 44.42,-4.11l100.84 0 0 40.34 -93.28 0c-9.24,0 -18.9,0.84 -28.99,2.53 -10.07,1.67 -18.9,5.25 -26.47,10.7 -5.45,4.21 -9.76,9.46 -12.92,15.76 -3.14,6.3 -4.72,13.66 -4.72,22.06 0,16.39 6.1,29.41 18.28,39.07 12.18,9.66 28.57,14.5 49.16,14.5 17.22,0 32.87,-4 46.95,-11.97 14.07,-7.99 25.41,-19.02 34.03,-33.1 8.61,-14.07 12.92,-29.93 12.92,-47.58l22.06 22.69c-2.52,22.27 -9.25,42.02 -20.17,59.24 -10.92,17.23 -24.9,30.57 -41.91,40.02 -17.02,9.46 -36.66,14.19 -58.93,14.19zm342.22 0c-14.71,0 -28.05,-2.85 -40.02,-8.51 -11.98,-5.68 -21.33,-14.82 -28.05,-27.42 -6.73,-12.6 -10.08,-28.78 -10.08,-48.53l0 -314.48 54.19 -30.25 0 330.87c0,17.22 2.74,30.57 8.2,40.01 5.46,9.46 15.33,14.19 29.62,14.19 4.2,0 9.24,-0.53 15.13,-1.58 5.88,-1.05 12.17,-2.41 18.9,-4.1l0 41.6c-7.98,2.94 -16.07,5.05 -24.26,6.3 -8.2,1.26 -16.07,1.9 -23.63,1.9zm-142.43 -274.16l0 -41.59 190.32 0 0 41.59 -190.32 0zm381.91 274.16c-24.37,0 -45.69,-4.1 -63.97,-12.29 -18.28,-8.19 -33.4,-19.64 -45.38,-34.35 -11.97,-14.71 -21,-31.62 -27.09,-50.74 -6.1,-19.12 -9.14,-39.38 -9.14,-60.82 0,-21.43 2.94,-41.91 8.82,-61.44 5.89,-19.54 14.6,-36.87 26.16,-51.99 11.55,-15.13 26.15,-27.1 43.8,-35.93 17.65,-8.82 38.23,-13.23 61.76,-13.23 23.95,0 44.64,4.09 62.08,12.28 17.44,8.2 31.72,19.44 42.85,33.72 11.13,14.29 19.43,30.25 24.89,47.9 5.47,17.65 8.19,35.92 8.19,54.84 0,1.67 -0.09,5.56 -0.31,11.65 -0.21,6.09 -0.73,11.45 -1.57,16.07l-223.73 0c1.25,30.25 10.08,53.78 26.46,70.59 16.4,16.81 38.66,25.21 66.81,25.21 18.06,0 33.82,-2.95 47.27,-8.83 13.44,-5.88 26.04,-15.34 37.81,-28.35l37.19 32.76c-11.35,12.19 -23.32,22.17 -35.93,29.94 -12.6,7.78 -25.95,13.55 -40.02,17.33 -14.08,3.78 -29.73,5.68 -46.95,5.68zm80.04 -171.42c0.84,-3.37 1.36,-6.74 1.57,-10.09 0.21,-3.37 0.32,-6.72 0.32,-10.09 0,-10.07 -1.79,-20.16 -5.36,-30.25 -3.56,-10.07 -8.83,-19.21 -15.75,-27.41 -6.93,-8.2 -15.76,-14.7 -26.47,-19.54 -10.71,-4.82 -23.43,-7.24 -38.13,-7.24 -18.06,0 -33.62,4.19 -46.64,12.6 -13.02,8.4 -23.11,19.53 -30.25,33.4 -7.14,13.87 -11.35,29.2 -12.6,46l190.95 0 -17.64 12.62zm254.6 300.61c-44.53,0 -79.82,-8.19 -105.87,-24.57 -26.05,-16.4 -39.07,-39.08 -39.07,-68.08 0,-2.09 0.1,-4.82 0.31,-8.19 0.21,-3.35 0.73,-6.51 1.58,-9.45l77.52 -56.09 18.27 12.61 -44.11 54.83c-0.43,1.67 -0.63,3.14 -0.63,4.41 0,1.26 0,2.51 0,3.78 0,16.81 8.82,29.3 26.47,37.49 17.65,8.19 39.49,12.29 65.53,12.29 23.12,0 42.24,-3.26 57.36,-9.76 15.13,-6.51 22.69,-17.12 22.69,-31.83 0,-8.4 -2.42,-15.23 -7.25,-20.48 -4.83,-5.25 -11.76,-9.35 -20.8,-12.29 -9.03,-2.94 -19.64,-5.47 -31.82,-7.57 -12.19,-2.09 -25.84,-4.19 -40.97,-6.29 -18.9,-2.95 -37.29,-7.15 -55.14,-12.61 -17.86,-5.47 -32.56,-13.44 -44.12,-23.95 -11.55,-10.5 -17.33,-24.37 -17.33,-41.59 0,-14.71 5.15,-28.15 15.44,-40.34 10.3,-12.18 23.84,-22.27 40.65,-30.25l34.03 22.06c-14.28,3.36 -24.37,8.5 -30.25,15.44 -5.89,6.93 -8.83,15.23 -8.83,24.89 0,7.99 2.85,14.49 8.51,19.54 5.68,5.04 13.87,8.93 24.59,11.66 10.7,2.73 23.62,5.14 38.75,7.25 20.17,2.94 39.08,6.09 56.73,9.45 17.64,3.36 33.29,8.09 46.95,14.17 13.65,6.11 24.26,14.3 31.82,24.59 7.57,10.3 11.35,23.63 11.35,40.01 0,28.58 -11.77,50.53 -35.3,65.86 -23.53,15.34 -55.88,23.01 -97.06,23.01zm-7.56 -231.3c-23.94,0 -45.16,-4.62 -63.65,-13.85 -18.48,-9.25 -32.87,-22.06 -43.17,-38.45 -10.29,-16.39 -15.43,-35.09 -15.43,-56.09 0,-21.85 5.35,-41.08 16.06,-57.67 10.71,-16.6 25.21,-29.52 43.49,-38.76 18.27,-9.24 38.54,-13.86 60.82,-13.86 21.84,0 41.8,4.62 59.87,13.86 18.06,9.24 32.56,22.27 43.48,39.08 10.92,16.81 16.39,36.55 16.39,59.24 0,21.42 -5.05,40.13 -15.13,56.09 -10.08,15.97 -23.95,28.36 -41.59,37.19 -17.65,8.82 -38.03,13.22 -61.14,13.22zm-1.26 -43.47c21.01,0 37.3,-6.42 48.85,-19.23 11.55,-12.81 17.33,-28.47 17.33,-46.95 0,-19.75 -6.09,-35.72 -18.28,-47.9 -12.18,-12.19 -28.15,-18.28 -47.9,-18.28 -20.16,0 -36.55,6.2 -49.15,18.6 -12.61,12.39 -18.91,28.04 -18.91,46.95 0,18.91 6.1,34.77 18.28,47.58 12.19,12.81 28.78,19.23 49.78,19.23zm98.95 -112.18l-38.45 -25.84 65.55 -54.21 27.1 33.4 -54.2 46.65zm107.77 252.71l0 -310.7 52.93 0 0 310.7 -52.93 0zm-5.04 -366.79l0 -72.47 63.02 0 0 72.47 -63.02 0zm277.3 371.84c-23.11,0 -43.59,-4.21 -61.45,-12.61 -17.85,-8.41 -32.87,-20.06 -45.06,-34.98 -12.18,-14.91 -21.43,-32.03 -27.73,-51.36 -6.31,-19.32 -9.45,-39.91 -9.45,-61.76 0,-21.43 3.14,-41.81 9.45,-61.14 6.3,-19.32 15.55,-36.45 27.73,-51.36 12.19,-14.91 27.21,-26.57 45.06,-34.98 17.86,-8.4 38.34,-12.6 61.45,-12.6 29.4,0 55.14,7.14 77.2,21.42 22.06,14.3 38.34,36.14 48.84,65.55l-47.27 18.28c-5.88,-17.65 -15.33,-31.94 -28.35,-42.86 -13.03,-10.92 -29.84,-16.39 -50.42,-16.39 -20.59,0 -37.6,5.47 -51.06,16.39 -13.44,10.92 -23.42,25 -29.93,42.23 -6.52,17.22 -9.76,35.71 -9.76,55.46 0,19.74 3.24,38.34 9.76,55.77 6.51,17.44 16.49,31.51 29.93,42.22 13.46,10.72 30.47,16.08 51.06,16.08 20.58,0 37.39,-5.36 50.42,-16.08 13.02,-10.71 22.47,-25.1 28.35,-43.17l47.27 18.28c-10.5,29.41 -26.78,51.36 -48.84,65.86 -22.06,14.5 -47.8,21.75 -77.2,21.75zm365.52 -5.05l0 -439.26 55.47 0 0 389.48 196.62 0 0 49.78 -252.09 0zm432.33 5.05c-24.36,0 -45.68,-4.1 -63.96,-12.29 -18.28,-8.19 -33.4,-19.64 -45.38,-34.35 -11.98,-14.71 -21.01,-31.62 -27.1,-50.74 -6.1,-19.12 -9.14,-39.38 -9.14,-60.82 0,-21.43 2.95,-41.91 8.83,-61.44 5.88,-19.54 14.6,-36.87 26.15,-51.99 11.55,-15.13 26.16,-27.1 43.81,-35.93 17.64,-8.82 38.22,-13.23 61.75,-13.23 23.95,0 44.64,4.09 62.08,12.28 17.44,8.2 31.72,19.44 42.86,33.72 11.13,14.29 19.43,30.25 24.89,47.9 5.47,17.65 8.19,35.92 8.19,54.84 0,1.67 -0.1,5.56 -0.32,11.65 -0.2,6.09 -0.73,11.45 -1.57,16.07l-223.72 0c1.25,30.25 10.07,53.78 26.46,70.59 16.39,16.81 38.66,25.21 66.81,25.21 18.06,0 33.82,-2.95 47.26,-8.83 13.44,-5.88 26.05,-15.34 37.81,-28.35l37.19 32.76c-11.35,12.19 -23.32,22.17 -35.92,29.94 -12.61,7.78 -25.95,13.55 -40.03,17.33 -14.07,3.78 -29.72,5.68 -46.95,5.68zm80.05 -171.42c0.84,-3.37 1.36,-6.74 1.57,-10.09 0.2,-3.37 0.31,-6.72 0.31,-10.09 0,-10.07 -1.78,-20.16 -5.36,-30.25 -3.56,-10.07 -8.82,-19.21 -15.75,-27.41 -6.93,-8.2 -15.75,-14.7 -26.47,-19.54 -10.71,-4.82 -23.42,-7.24 -38.13,-7.24 -18.06,0 -33.61,4.19 -46.63,12.6 -13.03,8.4 -23.12,19.53 -30.25,33.4 -7.15,13.87 -11.35,29.2 -12.61,46l190.95 0 -17.63 12.62zm129.18 166.37l0 -310.7 53.58 0 0 66.18 -12.61 4.41c5.89,-15.97 13.87,-29.52 23.95,-40.65 10.08,-11.14 22.27,-19.75 36.55,-25.84 14.29,-6.09 30.05,-9.14 47.27,-9.14 34.03,0 60.71,9.98 80.03,29.93 19.34,19.96 29,49.48 29,88.55l0 197.26 -53.57 0 0 -177.72c0,-31.52 -5.77,-54.72 -17.33,-69.65 -11.55,-14.91 -29.1,-22.37 -52.63,-22.37 -17.22,0 -31.82,4 -43.79,11.98 -11.98,7.99 -21.12,20.48 -27.42,37.5 -6.31,17.01 -9.45,38.76 -9.45,65.23l0 155.03 -53.58 0zm447.47 5.05c-21.01,0 -39.91,-3.15 -56.72,-9.46 -16.81,-6.31 -31.2,-14.71 -43.17,-25.21 -11.97,-10.5 -21.54,-21.63 -28.68,-33.4l37.19 -31.51c7.98,15.97 19.84,29.1 35.61,39.39 15.75,10.29 34.55,15.44 56.4,15.44 19.74,0 35.5,-4.2 47.27,-12.61 11.76,-8.4 17.65,-19.75 17.65,-34.03 0,-11.76 -3.58,-21 -10.72,-27.73 -7.15,-6.73 -16.6,-12.18 -28.36,-16.39 -11.76,-4.19 -24.59,-7.98 -38.45,-11.34 -11.76,-2.94 -23.63,-6.51 -35.6,-10.72 -11.98,-4.19 -22.8,-9.44 -32.46,-15.75 -9.67,-6.31 -17.43,-14.5 -23.32,-24.57 -5.88,-10.09 -8.82,-22.49 -8.82,-37.19 0,-25.63 9.98,-46.32 29.94,-62.07 19.95,-15.77 46.11,-23.64 78.46,-23.64 23.52,0 45.06,4.93 64.6,14.81 19.53,9.87 34.76,24.69 45.68,44.43l-34.03 25.21c-8.39,-14.7 -19.43,-25.31 -33.08,-31.83 -13.66,-6.51 -28.68,-9.77 -45.07,-9.77 -16.38,0 -30.04,3.37 -40.97,10.09 -10.91,6.72 -16.38,15.97 -16.38,27.72 0,8.83 2.53,15.97 7.57,21.43 5.03,5.47 12.5,10.09 22.37,13.87 9.88,3.78 21.96,7.35 36.24,10.72 13.03,2.94 26.26,6.51 39.7,10.7 13.45,4.21 25.84,9.67 37.18,16.4 11.35,6.72 20.48,15.64 27.42,26.77 6.93,11.14 10.39,25.53 10.39,43.18 0,19.33 -4.82,36.35 -14.48,51.04 -9.67,14.71 -23.33,26.06 -40.97,34.04 -17.65,7.98 -38.45,11.98 -62.39,11.98zm382.54 -5.05l0 -269.11 -64.28 0 0 -41.59 64.91 0 0 -40.34c0,-23.53 3.78,-42.11 11.34,-55.77 7.56,-13.65 17.97,-23.31 31.2,-28.99 13.24,-5.67 28.04,-8.51 44.43,-8.51 11.35,0 21.42,1.05 30.25,3.15 8.82,2.1 17.23,5.25 25.22,9.46l-17.65 40.34c-4.63,-2.53 -9.67,-4.53 -15.13,-6 -5.46,-1.47 -11.14,-2.2 -17.02,-2.2 -13.44,0 -23.42,4.2 -29.93,12.61 -6.52,8.4 -9.77,20.37 -9.77,35.91l0 40.34 72.47 0 0 41.59 -72.47 0 0 269.11 -53.57 0zm303.76 5.05c-28.98,0 -54.93,-6.83 -77.83,-20.48 -22.9,-13.66 -40.86,-32.67 -53.89,-57.04 -13.02,-24.37 -19.53,-52.11 -19.53,-83.19 0,-31.09 6.41,-58.72 19.22,-82.88 12.82,-24.15 30.67,-43.06 53.57,-56.72 22.9,-13.65 49.05,-20.48 78.46,-20.48 29.42,0 55.35,6.83 77.84,20.48 22.47,13.66 40.23,32.57 53.24,56.72 13.03,24.16 19.55,51.79 19.55,82.88 0,31.08 -6.52,58.71 -19.55,82.87 -13.01,24.16 -30.87,43.17 -53.56,57.04 -22.69,13.86 -48.53,20.8 -77.52,20.8zm0 -47.27c19.75,0 36.87,-4.73 51.37,-14.18 14.5,-9.46 25.73,-22.7 33.71,-39.71 7.99,-17.02 11.97,-36.86 11.97,-59.55 0,-23.11 -3.98,-43.18 -11.97,-60.19 -7.98,-17.02 -19.21,-30.14 -33.71,-39.39 -14.5,-9.24 -31.62,-13.87 -51.37,-13.87 -20.17,0 -37.6,4.73 -52.31,14.18 -14.7,9.46 -26.04,22.59 -34.03,39.4 -7.98,16.8 -11.97,36.76 -11.97,59.87 0,22.69 3.99,42.53 11.97,59.55 7.99,17.01 19.33,30.25 34.03,39.71 14.71,9.45 32.14,14.18 52.31,14.18zm226.88 42.22l0 -310.7 53.57 0 0 83.19 -13.86 3.15c2.94,-18.48 9.98,-34.55 21.11,-48.21 11.13,-13.65 24.16,-24.26 39.07,-31.82 14.93,-7.57 29.52,-11.35 43.81,-11.35 9.66,0 18.91,1.05 27.73,3.15 8.82,2.1 17.85,5.67 27.09,10.71l-26.46 47.9c-5.04,-2.52 -11.03,-4.62 -17.96,-6.3 -6.94,-1.68 -13.55,-2.52 -19.86,-2.52 -10.08,0 -20.05,1.88 -29.93,5.67 -9.87,3.78 -18.81,9.67 -26.78,17.64 -7.99,7.99 -14.09,18.7 -18.28,32.15 -1.69,5.88 -3.05,13.55 -4.1,23 -1.05,9.46 -1.58,22.38 -1.58,38.76l0 145.58 -53.57 0zm606.28 7.56c-39.49,0 -74.26,-9.45 -104.29,-28.35 -30.04,-18.91 -53.46,-45.48 -70.27,-79.73 -16.81,-34.24 -25.21,-74.06 -25.21,-119.43 0,-45.38 8.51,-85.07 25.52,-119.1 17.02,-34.05 40.75,-60.51 71.21,-79.42 30.47,-18.91 65.86,-28.35 106.2,-28.35 44.11,0 82.35,10.91 114.7,32.76 32.35,21.86 55.67,52.11 69.96,90.76l-51.68 19.53c-10.93,-28.56 -27.74,-50.73 -50.42,-66.48 -22.69,-15.77 -50.2,-23.64 -82.56,-23.64 -29.83,0 -55.88,7.14 -78.15,21.43 -22.26,14.29 -39.39,34.34 -51.36,60.18 -11.98,25.84 -17.96,56.62 -17.96,92.33 0,35.71 5.98,66.59 17.96,92.64 11.97,26.06 29.1,46.22 51.36,60.5 22.27,14.29 48.32,21.44 78.15,21.44 15.12,0 30.67,-2.1 46.64,-6.31 15.97,-4.2 30.66,-11.55 44.11,-22.06 13.45,-10.5 24.26,-24.89 32.46,-43.17 8.19,-18.28 12.28,-41.49 12.28,-69.64l0 -32.13 12.61 37.81 -123.52 0 0 -49.8 160.08 0 0 230.67 -49.17 0 -7.56 -85.71 9.46 6.93c-7.56,20.18 -18.49,36.56 -32.78,49.16 -14.28,12.61 -30.77,21.95 -49.47,28.04 -18.69,6.1 -38.12,9.14 -58.3,9.14zm274.78 -7.56l0 -310.7 53.57 0 0 83.19 -13.87 3.15c2.95,-18.48 9.98,-34.55 21.12,-48.21 11.13,-13.65 24.16,-24.26 39.07,-31.82 14.92,-7.57 29.52,-11.35 43.8,-11.35 9.66,0 18.91,1.05 27.74,3.15 8.82,2.1 17.85,5.67 27.09,10.71l-26.46 47.9c-5.05,-2.52 -11.04,-4.62 -17.96,-6.3 -6.94,-1.68 -13.56,-2.52 -19.86,-2.52 -10.08,0 -20.06,1.88 -29.94,5.67 -9.87,3.78 -18.8,9.67 -26.77,17.64 -7.99,7.99 -14.09,18.7 -18.28,32.15 -1.69,5.88 -3.05,13.55 -4.1,23 -1.06,9.46 -1.58,22.38 -1.58,38.76l0 145.58 -53.57 0zm375.62 5.05c-28.98,0 -54.93,-6.83 -77.83,-20.48 -22.9,-13.66 -40.86,-32.67 -53.89,-57.04 -13.02,-24.37 -19.53,-52.11 -19.53,-83.19 0,-31.09 6.4,-58.72 19.21,-82.88 12.83,-24.15 30.68,-43.06 53.58,-56.72 22.9,-13.65 49.05,-20.48 78.46,-20.48 29.42,0 55.35,6.83 77.84,20.48 22.47,13.66 40.23,32.57 53.24,56.72 13.03,24.16 19.55,51.79 19.55,82.88 0,31.08 -6.52,58.71 -19.55,82.87 -13.01,24.16 -30.87,43.17 -53.56,57.04 -22.69,13.86 -48.53,20.8 -77.52,20.8zm0 -47.27c19.75,0 36.87,-4.73 51.37,-14.18 14.49,-9.46 25.73,-22.7 33.71,-39.71 7.99,-17.02 11.97,-36.86 11.97,-59.55 0,-23.11 -3.98,-43.18 -11.97,-60.19 -7.98,-17.02 -19.22,-30.14 -33.71,-39.39 -14.5,-9.24 -31.62,-13.87 -51.37,-13.87 -20.17,0 -37.6,4.73 -52.31,14.18 -14.7,9.46 -26.04,22.59 -34.03,39.4 -7.98,16.8 -11.97,36.76 -11.97,59.87 0,22.69 3.99,42.53 11.97,59.55 7.99,17.01 19.33,30.25 34.03,39.71 14.71,9.45 32.14,14.18 52.31,14.18zm288.01 42.22l-92.01 -310.7 56.72 0 63.02 230.04 74.37 -230.04 47.26 0 74.37 228.77 63.65 -228.77 56.72 0 -92.65 310.7 -49.15 0 -76.26 -236.33 -76.25 236.33 -49.79 0zm510.49 5.05c-14.71,0 -28.05,-2.85 -40.02,-8.51 -11.98,-5.68 -21.33,-14.82 -28.05,-27.42 -6.73,-12.6 -10.08,-28.78 -10.08,-48.53l0 -314.48 54.19 -30.25 0 330.87c0,17.22 2.74,30.57 8.2,40.01 5.46,9.46 15.33,14.19 29.61,14.19 4.21,0 9.25,-0.53 15.14,-1.58 5.88,-1.05 12.17,-2.41 18.9,-4.1l0 41.6c-7.98,2.94 -16.07,5.05 -24.26,6.3 -8.2,1.26 -16.07,1.9 -23.63,1.9zm-142.43 -274.16l0 -41.59 190.32 0 0 41.59 -190.32 0zm257.11 269.11l0 -439.26 53.58 0 0 194.74 -13.24 5.03c5.88,-15.96 14.08,-29.62 24.58,-40.96 10.51,-11.34 22.9,-20.06 37.19,-26.15 14.28,-6.09 29.82,-9.14 46.63,-9.14 34.03,0 60.71,9.98 80.04,29.93 19.33,19.96 28.99,49.48 28.99,88.55l0 197.26 -53.57 0 0 -177.72c0,-31.52 -5.77,-54.72 -17.33,-69.65 -11.55,-14.91 -29.1,-22.37 -52.63,-22.37 -25.62,0 -45.48,9.14 -59.55,27.42 -14.08,18.28 -21.11,47.37 -21.11,87.29l0 155.03 -53.58 0z"/>
 </g>
</svg>
